<svg xmlns="http://www.w3.org/2000/svg" width="440.274" height="456.801" viewBox="0 0 440.274 456.801">
  <g id="logo" transform="translate(-70.059 -55.377)">
    <path id="Path_1" data-name="Path 1" d="M290.2,55.377c-116.9,0-212.565,97.6-220.109,221.024a14.794,14.794,0,0,0,14.744,15.731h410.73A14.794,14.794,0,0,0,510.3,276.4C502.761,152.979,407.1,55.377,290.2,55.377ZM230.71,230.96a14.757,14.757,0,0,1-14.485-17.692c7.525-36.406,37.786-63.63,73.971-63.63s66.445,27.224,73.971,63.63a14.757,14.757,0,0,1-14.485,17.692Z" transform="translate(0 0)" fill="#bd1550"/>
    <path id="Path_2" data-name="Path 2" d="M434.907,626.205a22.688,22.688,0,0,0-19.112,10.361c-23.332,36.332-65.372,60.583-113.37,60.583s-90.038-24.251-113.37-60.583a22.688,22.688,0,0,0-19.112-10.361H117.98A22.792,22.792,0,0,0,96.873,657.67C129.259,735.6,209.059,790.733,302.425,790.733S475.59,735.6,507.976,657.67a22.791,22.791,0,0,0-21.107-31.464Z" transform="translate(-12.229 -278.555)" fill="#bd1550"/>
  </g>
</svg>
